# xmcd
#
# Track frame offsets: 
#        150
#        23532
#        34787
#        43030
#        59012
#        68295
#        98340
#        115740
#        127215
#        142880
#        175415
#        192787
#        202147
#        221115
#        244902
#        263435
#        276140
#
# Disc length: 3812 seconds
#
# Revision: 0
# Processed by: cddbd v1.5.2PL0 Copyright (c) Steve Scherf et al.
# Submitted via: ExactAudioCopyFreeDBPlugin 1.0
#
DISCID=f40ee211
DTITLE=Seattle Men's Chorus - Over The Rainbow! 2000 (1999)
DYEAR=1999
DGENRE=Choir
TTITLE0=Diversity
TTITLE1=Welcome! Sing, Be Merry!
TTITLE2=Ching-A-Ring Chaw
TTITLE3=At The River
TTITLE4=Zion's Walls
TTITLE5=Ave Maria
TTITLE6=Ring Out, Wild Bells
TTITLE7=Eulogy
TTITLE8=Not While I'm Around
TTITLE9=Hit Me With A Hot Note
TTITLE10=Mood Indigo
TTITLE11=Mr. Sandman
TTITLE12=The Great Peace March
TTITLE13=Old Friend
TTITLE14=Family
TTITLE15=Over The Rainbow
TTITLE16=A Parting Blessing
EXTD=
EXTT0=
EXTT1=
EXTT2=
EXTT3=
EXTT4=
EXTT5=
EXTT6=
EXTT7=
EXTT8=
EXTT9=
EXTT10=
EXTT11=
EXTT12=
EXTT13=
EXTT14=
EXTT15=
EXTT16=
PLAYORDER=
